<svg id="Layer_1" data-name="Layer 1" xmlns="http://www.w3.org/2000/svg" width="86.77" height="90"><defs><clipPath id="clip-path" transform="translate(-460.07 -175.3)"><path fill="none" d="M468.37 192.04l13.94 12.09-4.37 48.88 2.52 10.08 10.59-6.55-1.52-12.43 49.72-27.21 4.71-8.01-7.56-4.09-23.35-1.84-30.82-19.15-13.86-1.85v10.08z"/></clipPath><style>.cls-2{fill:none;stroke:#086287;stroke-width:6.72px}</style></defs><g id="Layer_2" data-name="Layer 2"><path class="cls-2" d="M470.77 186.38s-9.86-2.09-6.73 7.49l20.6 63.13s3.12 9.58 9.85 2.08l44.21-49.3s6.73-7.5-3.13-9.6z" transform="translate(-460.07 -175.3)"/><path d="M21.16 4.48S12.27-.28 12.63 9.8l2.38 66.5s.36 10.08 8.88 4.7l55.84-35.3s8.52-5.38-.37-10.13z" stroke="#81c459" stroke-width="6.72" fill="none"/></g><g clip-path="url(#clip-path)"><path class="cls-2" d="M470.77 186.38s-9.86-2.09-6.73 7.49l20.6 63.13s3.12 9.58 9.85 2.08l44.21-49.3s6.73-7.5-3.13-9.6z" transform="translate(-460.07 -175.3)"/></g></svg>