<svg id="Layer_1" data-name="Layer 1" xmlns="http://www.w3.org/2000/svg" xmlns:xlink="http://www.w3.org/1999/xlink" width="86.77" height="90" viewBox="0 0 86.77 90"><defs><style>.cls-1,.cls-2,.cls-3{fill:none;}.cls-2{stroke:#086287;}.cls-2,.cls-3{stroke-width:6.72px;}.cls-3{stroke:#81c459;}.cls-4{clip-path:url(#clip-path);}</style><clipPath id="clip-path" transform="translate(-460.07 -175.3)"><polygon class="cls-1" points="468.37 192.04 482.31 204.13 477.94 253.01 480.46 263.09 491.05 256.54 489.53 244.11 539.25 216.9 543.96 208.89 536.4 204.8 513.05 202.96 482.23 183.81 468.37 181.96 468.37 192.04"/></clipPath></defs><title>civi-logo-icon</title><g id="Layer_2" data-name="Layer 2"><path class="cls-2" d="M470.77,186.38s-9.86-2.09-6.73,7.49L484.64,257s3.12,9.58,9.85,2.08l44.21-49.3s6.73-7.5-3.13-9.6Z" transform="translate(-460.07 -175.3)"/><path class="cls-3" d="M481.23,179.78s-8.89-4.76-8.53,5.32l2.38,66.5s.36,10.08,8.88,4.7L539.8,221s8.52-5.38-.37-10.13Z" transform="translate(-460.07 -175.3)"/></g><g class="cls-4"><path class="cls-2" d="M470.77,186.38s-9.86-2.09-6.73,7.49L484.64,257s3.12,9.58,9.85,2.08l44.21-49.3s6.73-7.5-3.13-9.6Z" transform="translate(-460.07 -175.3)"/></g></svg>